<?xml version="1.0" standalone="no"?>
<!DOCTYPE svg PUBLIC "-//W3C//DTD SVG 20010904//EN"
 "http://www.w3.org/TR/2001/REC-SVG-20010904/DTD/svg10.dtd">
<svg version="1.0" xmlns="http://www.w3.org/2000/svg"
 width="1701.000000pt" height="1701.000000pt" viewBox="0 0 1701.000000 1701.000000"
 preserveAspectRatio="xMidYMid meet">
<metadata>
Created by potrace 1.11, written by Peter Selinger 2001-2013
</metadata>
<g transform="translate(0.000000,1701.000000) scale(0.100000,-0.100000)"
fill="#000000" stroke="none">
<path d="M8090 17004 c-36 -2 -155 -11 -265 -19 -2013 -158 -3899 -1029 -5335
-2465 -1348 -1349 -2202 -3098 -2430 -4980 -70 -580 -79 -1250 -25 -1835 155
-1658 805 -3251 1858 -4548 349 -431 798 -882 1233 -1238 880 -722 1935 -1274
3029 -1588 582 -166 1159 -266 1810 -313 252 -18 884 -15 1145 6 1145 89 2160
365 3155 856 2584 1277 4350 3778 4685 6635 66 569 74 1253 19 1805 -132 1342
-552 2571 -1273 3725 -225 360 -518 749 -835 1109 -164 186 -559 580 -743 740
-885 771 -1853 1326 -2938 1686 -671 223 -1265 342 -2050 411 -121 10 -907 20
-1040 13z m-1066 -6512 c5 -8 6 -40 5 -114 0 -14 -6 -32 -14 -38 -8 -7 -15
-25 -15 -40 0 -15 -9 -35 -20 -45 -11 -10 -20 -28 -20 -39 0 -12 -24 -48 -55
-81 -47 -52 -54 -64 -49 -91 4 -21 1 -34 -10 -43 -9 -8 -16 -29 -16 -50 0 -20
-4 -41 -9 -46 -4 -6 -14 -39 -20 -74 -7 -35 -22 -76 -33 -91 -15 -21 -20 -45
-22 -96 -1 -68 -1 -69 -27 -66 -25 3 -62 -26 -58 -44 4 -17 -13 -63 -27 -75
-19 -16 -18 -56 4 -78 35 -37 118 -66 143 -50 8 5 20 2 30 -7 32 -29 167 -57
237 -49 36 4 65 12 68 19 3 8 28 13 69 14 57 0 65 -2 79 -23 30 -45 17 -88
-34 -115 -10 -5 -25 -7 -34 -4 -8 3 -32 0 -53 -7 -40 -14 -55 -16 -168 -23
-94 -6 -138 -12 -278 -36 -66 -11 -129 -20 -141 -20 -12 0 -33 -12 -47 -26
-13 -14 -34 -30 -46 -35 -12 -4 -29 -24 -39 -44 -14 -31 -15 -38 -3 -45 11 -7
10 -10 -4 -16 -10 -3 -34 -32 -54 -62 -30 -47 -36 -66 -38 -123 -3 -44 -14
-93 -34 -145 -18 -48 -32 -102 -33 -134 -1 -30 -4 -57 -7 -60 -14 -12 -34 -81
-47 -158 -8 -46 -23 -100 -34 -120 -80 -152 -95 -214 -66 -270 33 -64 160 -85
213 -36 15 14 42 33 58 41 33 18 49 31 116 97 44 44 47 45 63 28 21 -25 20
-53 -5 -115 -33 -83 -40 -93 -76 -134 -78 -86 -84 -90 -126 -96 -23 -4 -72
-10 -108 -15 -36 -5 -75 -15 -86 -23 -18 -10 -29 -10 -69 6 -115 42 -144 112
-131 316 3 41 13 81 27 110 15 27 24 63 24 94 1 30 8 62 19 78 9 14 17 41 17
59 0 18 11 67 24 108 48 147 58 188 51 199 -4 7 0 22 7 34 8 12 20 63 27 112
7 50 19 102 28 118 8 15 16 48 19 74 2 25 12 61 21 80 l16 35 -40 40 c-33 33
-47 40 -79 40 -21 -1 -62 -1 -90 -1 -33 0 -55 -5 -63 -15 -12 -14 -15 -14 -36
2 -20 15 -21 18 -6 28 13 10 14 15 2 37 -10 20 -11 32 -2 60 11 32 15 35 62
40 31 4 58 2 69 -5 15 -9 30 -8 72 4 64 20 132 20 167 2 14 -8 32 -14 39 -14
16 0 92 74 92 89 0 6 11 27 25 47 14 20 25 49 25 64 0 15 7 44 16 65 11 27 12
41 5 48 -17 17 -13 27 9 27 13 0 20 7 20 19 0 10 9 21 20 24 11 3 20 14 20 25
0 11 6 25 14 31 7 6 17 28 21 49 9 48 25 148 28 189 2 18 10 41 19 50 13 15
13 32 4 115 -7 60 -17 103 -27 115 -9 10 -19 23 -22 30 -7 12 83 83 118 94 18
5 20 2 17 -26 -2 -18 1 -36 7 -40 17 -10 41 14 41 40 0 34 28 93 49 105 11 5
21 22 23 37 3 25 8 29 49 34 26 4 59 14 75 23 34 18 41 19 48 8z m-4356 -30
c6 -9 12 -28 12 -43 0 -15 4 -30 9 -34 13 -8 3 -101 -16 -150 -12 -30 -16 -81
-17 -198 -1 -122 -5 -160 -15 -166 -8 -6 -12 -18 -8 -31 3 -12 1 -33 -4 -47
-6 -18 -6 -30 2 -39 9 -11 6 -19 -15 -39 -29 -27 -32 -56 -15 -116 9 -30 9
-45 -3 -76 -8 -21 -13 -54 -11 -73 2 -19 -1 -55 -7 -80 -6 -25 -11 -65 -10
-90 1 -25 2 -56 2 -70 0 -38 -18 -108 -32 -125 -7 -9 -14 -58 -16 -127 -4
-115 4 -161 35 -184 13 -10 13 -18 -2 -70 -24 -88 -29 -142 -15 -180 10 -27 9
-36 -3 -51 -12 -16 -15 -50 -8 -128 1 -11 1 -33 0 -50 -1 -16 1 -70 3 -120 l4
-90 49 -42 c26 -24 52 -43 56 -43 5 0 20 -9 34 -20 36 -28 92 -41 147 -34 40
6 46 10 46 30 0 21 2 23 27 13 25 -9 30 -7 53 20 14 17 30 31 37 31 20 0 53
42 53 67 0 15 6 23 18 23 15 0 102 89 102 105 0 4 6 21 14 38 7 18 19 46 26
62 7 17 18 64 25 105 7 41 20 117 29 169 9 51 14 101 11 111 -3 9 1 23 10 30
18 15 19 51 4 118 -14 61 -4 146 16 138 20 -7 27 25 19 81 -8 61 -20 83 -43
83 -11 0 -21 7 -25 15 -3 8 -17 15 -31 15 -20 0 -25 5 -25 25 0 13 -9 33 -21
44 -21 19 -21 19 -1 30 16 8 25 6 46 -10 18 -14 38 -20 63 -18 83 5 105 0 138
-35 24 -26 36 -52 50 -112 10 -44 22 -85 28 -91 17 -22 56 -15 69 12 6 14 17
25 23 25 7 0 18 7 26 16 9 11 26 14 58 12 43 -3 46 -1 51 24 5 30 65 68 107
68 27 0 53 -44 53 -91 0 -65 -100 -202 -156 -214 -16 -3 -42 -12 -59 -19 -16
-7 -61 -26 -98 -42 l-69 -29 -28 -73 c-21 -54 -27 -83 -23 -115 6 -46 57 -167
70 -167 14 0 43 56 43 83 0 13 7 30 15 37 8 7 15 27 15 45 0 45 9 65 30 65 22
0 46 -28 55 -65 16 -66 17 -126 2 -163 -8 -20 -12 -54 -10 -74 4 -29 1 -39
-16 -50 -14 -8 -21 -23 -21 -44 0 -17 -3 -34 -7 -38 -4 -4 -6 -42 -4 -85 1
-45 -2 -81 -7 -85 -7 -4 -3 -26 9 -58 10 -29 19 -66 19 -81 0 -61 77 -127 148
-127 33 0 52 9 107 53 58 44 74 64 111 137 24 47 44 90 44 97 0 7 10 21 22 32
17 16 19 23 9 35 -6 8 -8 16 -4 18 13 5 53 97 53 121 0 13 5 28 10 33 10 10
14 35 25 159 6 63 39 170 60 195 7 8 20 42 30 75 20 71 46 127 61 137 7 4 15
25 19 45 6 36 48 118 65 128 12 7 38 -4 43 -20 3 -7 1 -45 -4 -85 -7 -58 -6
-76 6 -93 21 -30 20 -81 0 -73 -20 7 -31 -20 -15 -38 9 -12 7 -17 -10 -26 -29
-16 -43 -54 -47 -133 -2 -41 -11 -84 -23 -106 -11 -23 -21 -71 -26 -123 -6
-74 -9 -87 -26 -92 -11 -2 -17 -9 -13 -15 3 -6 -8 -48 -25 -92 -54 -140 -67
-267 -33 -318 9 -14 26 -43 36 -64 31 -60 93 -98 112 -67 10 17 25 11 25 -9 0
-11 -19 -38 -42 -60 -34 -32 -51 -41 -78 -41 -20 0 -40 -4 -46 -10 -13 -13
-94 12 -135 42 -17 13 -40 40 -50 60 -11 21 -28 42 -38 48 -21 11 -51 4 -51
-12 0 -5 -6 -8 -12 -5 -7 2 -29 -3 -48 -11 -19 -8 -80 -20 -137 -27 -56 -8
-111 -19 -122 -24 -11 -6 -24 -11 -30 -11 -18 0 -106 83 -107 101 -1 10 -8 29
-17 42 -26 41 -31 225 -9 332 17 78 17 93 5 111 -12 19 -12 22 0 27 8 3 20 28
26 55 11 45 10 53 -14 104 -28 59 -67 104 -83 94 -9 -5 -17 -53 -27 -160 -3
-26 -11 -60 -19 -75 -8 -14 -22 -41 -31 -59 -10 -18 -35 -49 -57 -70 -22 -20
-46 -44 -55 -54 -34 -37 -115 -116 -160 -155 -34 -29 -63 -44 -98 -52 -75 -15
-135 -31 -185 -48 -63 -22 -201 -34 -220 -19 -8 7 -49 29 -91 50 -67 33 -78
43 -88 75 -33 110 -40 144 -32 159 5 9 5 26 1 38 -5 12 -10 53 -11 90 -1 38
-7 94 -13 124 -11 52 -9 113 10 315 3 39 6 84 5 100 0 17 6 58 15 93 9 35 14
80 11 100 -2 20 0 48 5 62 5 14 11 79 14 145 2 66 8 152 13 190 5 39 10 77 10
85 5 150 13 274 21 310 5 25 7 60 3 78 -3 18 0 38 6 46 7 8 14 38 17 67 13
144 78 391 113 433 9 10 11 28 6 55 l-6 39 43 -5 c24 -3 49 -12 56 -21z
m12487 -963 c4 -5 1 -18 -7 -27 -20 -25 -48 -90 -48 -112 0 -11 -7 -36 -16
-57 -9 -21 -22 -51 -29 -68 -39 -91 -75 -226 -75 -282 0 -19 -7 -37 -18 -45
-20 -15 -42 -60 -42 -87 0 -10 -7 -24 -15 -31 -15 -12 -41 -94 -47 -145 -2
-19 -11 -34 -27 -42 -29 -14 -59 -71 -71 -133 -12 -63 -51 -161 -77 -194 -13
-16 -23 -34 -23 -40 0 -6 -13 -28 -29 -47 -17 -20 -38 -56 -47 -80 -10 -24
-28 -61 -41 -81 -13 -21 -23 -45 -23 -53 0 -18 -36 -92 -47 -97 -14 -6 -73
-87 -73 -100 0 -7 -9 -26 -20 -43 -11 -16 -20 -38 -20 -48 0 -10 -8 -32 -17
-50 -9 -18 -17 -36 -18 -40 0 -5 -7 -14 -16 -20 -9 -7 -29 -39 -45 -72 -16
-33 -34 -63 -40 -67 -6 -4 -17 -28 -24 -54 -7 -25 -19 -48 -27 -51 -7 -3 -13
-16 -13 -29 0 -26 -42 -168 -65 -219 -22 -50 -35 -97 -29 -107 8 -13 -24 -58
-42 -58 -16 0 -54 -78 -54 -111 0 -10 -9 -37 -21 -59 -18 -34 -20 -50 -14
-110 4 -40 13 -74 21 -81 23 -19 158 -3 222 26 65 30 132 34 132 8 0 -22 -99
-123 -120 -123 -9 0 -29 -13 -45 -30 -45 -47 -98 -41 -228 27 -15 8 -36 12
-46 8 -13 -4 -29 3 -47 20 -15 14 -35 25 -45 25 -13 0 -19 7 -19 23 -1 12 -7
33 -15 47 -19 33 -19 88 0 124 8 15 15 47 15 70 0 23 9 59 20 81 11 22 20 52
20 67 0 17 5 28 14 28 17 0 26 22 26 62 0 18 7 36 18 44 14 10 17 28 16 110 0
93 -2 98 -28 121 -15 12 -33 23 -41 23 -30 0 -65 -24 -90 -61 -18 -28 -32 -39
-49 -39 -27 0 -108 -78 -138 -132 -22 -40 -55 -56 -130 -62 -50 -4 -66 -9 -80
-28 -63 -82 -80 -98 -113 -104 -19 -3 -39 -12 -46 -20 -6 -8 -18 -14 -25 -14
-8 0 -24 -11 -36 -25 -15 -17 -28 -23 -43 -19 -15 4 -29 -1 -41 -14 -11 -11
-30 -22 -44 -24 -54 -7 -31 -81 66 -209 60 -78 90 -102 145 -114 19 -4 41 -16
50 -27 19 -24 93 -26 209 -6 80 14 104 24 95 39 -8 12 75 12 94 0 13 -8 17
-26 24 -100 1 -17 -7 -28 -33 -42 -19 -11 -38 -27 -42 -37 -6 -15 -7 -15 -7 2
-1 17 -7 18 -63 13 -35 -4 -92 -2 -128 2 -36 5 -72 5 -80 1 -16 -9 -59 10 -80
35 -7 8 -32 20 -56 26 -24 6 -44 15 -44 20 0 4 -17 11 -37 15 -21 4 -56 19
-78 34 -22 15 -49 30 -60 34 -11 3 -34 18 -51 33 -16 16 -42 36 -57 46 -15 9
-27 22 -27 28 0 6 -16 36 -35 68 -31 51 -35 64 -37 136 -1 50 4 100 14 135 9
30 24 84 33 120 9 36 27 79 39 95 13 17 35 51 50 76 14 26 43 62 62 80 19 19
39 44 45 57 5 13 24 29 44 37 19 8 39 24 45 34 6 12 17 17 29 14 12 -3 30 6
49 24 43 40 77 63 152 101 60 31 73 34 172 36 100 2 109 4 144 31 20 16 48 28
64 27 28 -1 102 -45 134 -81 24 -27 43 -27 66 1 15 19 22 21 46 12 26 -9 29
-14 27 -49 -2 -22 -3 -49 -4 -60 -2 -35 21 -105 35 -105 18 0 45 42 53 83 3
17 9 34 13 37 3 3 15 25 27 50 11 25 30 53 41 64 12 10 31 46 42 81 11 34 37
89 56 121 20 33 39 79 43 104 7 42 27 76 119 202 12 17 22 40 22 50 0 11 14
33 30 51 19 20 40 61 55 109 21 67 50 128 138 293 9 17 23 48 32 70 23 56 45
97 66 120 10 12 29 50 43 85 47 126 73 186 120 273 26 49 58 118 72 155 13 36
31 73 38 82 8 8 17 25 20 37 15 48 122 103 141 72z m-5875 -319 c0 -6 11 -15
25 -20 13 -5 35 -27 49 -49 22 -34 31 -40 75 -46 27 -4 55 -13 62 -21 6 -8 16
-14 21 -14 15 0 130 -53 148 -67 59 -49 83 -81 85 -112 2 -14 10 -48 20 -75
18 -52 15 -61 -27 -71 -21 -5 -32 -2 -50 17 -13 14 -44 30 -70 37 -40 11 -53
21 -78 61 -16 26 -30 51 -31 56 -2 21 -91 87 -128 95 -34 7 -52 5 -108 -17
-38 -15 -76 -30 -85 -35 -10 -5 -29 -9 -43 -9 -14 0 -43 -11 -63 -24 -21 -13
-49 -24 -63 -24 -48 -1 -90 -15 -99 -32 -6 -10 -27 -24 -47 -30 -21 -7 -45
-18 -53 -25 -8 -6 -29 -17 -47 -24 -24 -10 -36 -25 -54 -68 -15 -36 -30 -58
-46 -64 -13 -5 -28 -21 -34 -36 -6 -16 -15 -37 -20 -48 -5 -11 -15 -62 -24
-112 -17 -99 -13 -186 11 -282 7 -30 11 -58 8 -62 -7 -11 28 -114 60 -176 18
-37 24 -60 20 -82 -9 -42 32 -111 115 -196 81 -83 105 -97 205 -121 69 -16 78
-16 108 -2 46 22 121 38 131 28 14 -13 -2 -49 -26 -61 -12 -6 -30 -19 -40 -27
-10 -9 -25 -17 -35 -18 -9 -2 -37 -7 -62 -13 -25 -5 -55 -7 -67 -4 -12 3 -32
-2 -45 -11 -33 -23 -112 -20 -190 8 -37 13 -73 28 -80 33 -7 5 -31 18 -53 28
-60 27 -145 102 -145 129 0 12 -7 31 -15 43 -8 11 -21 45 -29 75 -8 29 -23 81
-35 115 -12 34 -21 69 -21 76 0 8 -6 20 -14 26 -21 18 -29 112 -16 199 19 123
60 254 123 391 11 24 20 50 20 57 0 7 13 18 29 25 15 6 28 14 28 18 0 8 53 72
98 118 17 19 32 37 32 41 0 5 27 30 60 58 69 56 120 128 120 168 0 26 2 27 31
21 31 -7 69 14 69 38 0 13 40 57 52 57 4 0 8 -7 8 -15 0 -9 11 -21 25 -27 26
-12 27 -11 145 77 48 36 60 41 60 25z m-3395 -101 c-8 -12 -56 -32 -63 -25 -2
3 11 12 29 20 43 18 41 18 34 5z m-738 -71 c53 -13 179 -100 189 -130 6 -21
32 -48 45 -48 5 0 34 23 64 50 62 56 85 63 85 25 0 -25 -30 -98 -42 -103 -5
-2 -8 -9 -8 -16 0 -7 -13 -24 -28 -39 -16 -15 -39 -48 -51 -72 -30 -61 -58
-67 -110 -25 -29 22 -42 41 -47 68 -7 39 -32 81 -49 82 -5 0 -17 15 -25 33
-17 37 -46 44 -109 27 -31 -8 -49 -22 -73 -56 -18 -24 -57 -75 -85 -112 -29
-37 -53 -71 -53 -76 0 -4 -19 -35 -42 -67 -60 -82 -84 -122 -97 -162 -7 -20
-19 -41 -27 -47 -7 -7 -14 -19 -14 -26 0 -15 -35 -81 -56 -104 -7 -9 -21 -44
-29 -78 -9 -35 -23 -78 -31 -97 -8 -19 -14 -49 -14 -67 0 -24 -10 -44 -35 -70
-39 -43 -69 -48 -108 -18 -14 11 -31 20 -39 20 -9 0 -14 12 -14 35 0 19 5 35
11 35 5 0 22 12 36 28 21 22 25 34 21 65 -3 29 2 46 22 76 28 39 56 126 56
171 0 13 9 54 19 90 11 36 27 108 37 160 9 52 23 107 30 122 8 15 14 40 14 57
0 16 4 33 10 36 5 3 17 29 25 58 33 112 105 201 137 169 19 -19 9 -93 -17
-134 -32 -48 -31 -63 1 -95 24 -24 28 -25 39 -10 7 9 16 17 21 17 5 0 24 21
42 45 19 24 42 47 53 50 10 4 19 15 19 26 0 11 17 31 43 48 23 17 51 39 61 51
22 23 55 25 123 8z m676 -300 c21 -17 43 -43 49 -57 19 -46 35 -193 27 -238
-5 -24 -6 -49 -3 -57 3 -8 -6 -34 -20 -59 -14 -24 -26 -55 -26 -69 0 -14 -13
-50 -28 -80 -22 -45 -26 -62 -19 -88 6 -24 4 -36 -8 -50 -9 -10 -21 -33 -25
-52 -5 -18 -15 -51 -24 -73 -8 -22 -15 -57 -16 -77 0 -27 -7 -44 -25 -61 -30
-27 -46 -75 -32 -98 7 -11 0 -30 -28 -72 -21 -32 -35 -60 -32 -63 9 -9 46 6
65 26 13 14 34 20 80 22 39 1 63 7 66 15 10 26 33 13 39 -23 12 -71 -4 -166
-36 -221 -32 -53 -51 -67 -109 -78 -25 -5 -38 -2 -47 9 -8 9 -25 16 -39 16
-31 0 -103 34 -125 58 -9 9 -18 39 -21 65 -4 27 -11 57 -16 67 -17 32 -11 55
25 89 28 26 35 40 35 70 0 25 7 44 20 56 24 21 40 74 40 130 0 22 9 58 21 79
12 22 19 52 17 71 -1 22 4 41 17 55 14 15 21 42 25 98 5 74 6 77 29 74 22 -2
23 1 18 31 -3 19 1 43 9 57 8 15 13 56 14 103 0 63 -5 87 -24 125 -31 61 -51
79 -70 63 -7 -6 -20 -9 -27 -6 -8 3 -35 -16 -64 -45 -81 -81 -83 -83 -128
-125 -23 -22 -54 -47 -68 -57 -14 -9 -45 -48 -68 -87 -23 -39 -46 -71 -51 -71
-4 0 -18 -16 -30 -35 -12 -20 -28 -41 -35 -48 -7 -7 -19 -26 -28 -42 -8 -17
-25 -40 -37 -53 -12 -12 -26 -37 -32 -55 -6 -17 -17 -39 -24 -47 -20 -23 -94
-176 -94 -193 0 -24 -49 -112 -63 -113 -7 0 -17 -2 -23 -2 -6 -1 -17 -17 -26
-35 -17 -36 -58 -63 -82 -54 -19 8 -22 68 -4 96 8 14 8 31 -1 72 -18 79 -15
103 19 150 16 23 30 50 30 60 0 10 13 32 29 48 17 17 38 56 48 88 10 32 28 73
40 92 13 19 23 42 23 53 0 11 5 29 12 41 6 12 13 41 15 65 2 23 12 62 22 85
11 23 24 60 31 82 24 84 42 116 64 113 18 -3 21 -10 20 -45 0 -24 -7 -61 -14
-83 -10 -30 -10 -46 -3 -63 6 -12 14 -31 18 -42 5 -17 8 -16 33 13 15 18 35
32 45 32 9 0 17 4 17 10 0 13 199 212 237 235 18 11 65 43 105 71 40 28 87 56
103 62 49 19 123 5 168 -30z m4728 6 c27 -24 29 -65 6 -119 -11 -27 -24 -52
-28 -55 -11 -8 -30 -62 -25 -68 10 -9 36 20 36 40 0 15 5 19 20 15 14 -3 30 4
50 25 17 16 30 34 30 39 0 5 11 9 25 9 28 0 29 -3 15 -30 -8 -14 -6 -21 6 -28
18 -10 92 1 124 18 11 6 36 12 56 14 20 1 39 8 43 14 5 9 23 4 62 -18 30 -16
64 -30 77 -30 12 0 31 -9 42 -20 11 -11 28 -20 38 -20 18 0 82 -77 82 -99 0
-24 24 -60 47 -70 22 -10 24 -16 18 -49 -4 -20 -11 -38 -16 -40 -4 -2 -24 -14
-42 -27 -23 -15 -39 -20 -48 -14 -8 5 -28 9 -45 9 -36 0 -49 12 -60 55 -16 66
-77 178 -105 194 -16 9 -29 19 -29 24 0 11 -23 8 -54 -8 -21 -11 -32 -12 -42
-4 -19 16 -83 -7 -116 -42 -15 -16 -37 -29 -50 -29 -13 0 -39 -15 -58 -33 -19
-17 -43 -36 -54 -42 -11 -5 -29 -29 -40 -52 -13 -25 -28 -42 -39 -43 -26 0
-80 -67 -92 -113 -8 -33 -16 -42 -44 -51 -26 -8 -37 -20 -46 -46 -12 -32 -11
-37 14 -64 l26 -29 -27 7 c-18 4 -28 2 -28 -4 0 -15 -47 -115 -75 -160 -12
-19 -25 -47 -29 -62 -7 -31 -40 -82 -74 -116 -27 -27 -42 -63 -42 -102 0 -24
-5 -31 -27 -36 -59 -15 -110 56 -82 115 6 14 13 43 14 64 1 21 10 46 20 57 19
21 15 45 -17 98 -11 18 -18 35 -15 38 2 3 14 -11 25 -31 12 -19 27 -35 33 -35
7 0 9 3 6 6 -3 4 0 16 8 28 8 11 15 34 15 52 0 17 16 71 35 120 19 49 38 105
41 124 4 19 13 43 21 52 9 10 13 24 10 33 -4 8 -2 14 4 12 15 -3 70 75 73 105
1 14 10 33 19 42 8 9 19 26 22 39 15 55 72 165 114 222 25 35 59 82 76 105 25
35 33 40 55 35 14 -4 32 -13 41 -21z m283 -94 c4 -5 0 -13 -11 -18 -21 -12
-88 11 -79 27 7 11 76 3 90 -9z m-1360 -25 c27 -21 66 -19 66 2 0 14 3 14 23
-4 15 -15 42 -23 92 -28 40 -4 92 -17 122 -31 28 -13 57 -24 64 -24 6 0 33
-16 60 -36 45 -33 52 -35 78 -24 43 18 83 65 91 107 4 26 11 37 20 35 8 -2 28
-5 44 -7 38 -5 53 -22 61 -65 5 -31 0 -43 -47 -105 -29 -38 -61 -78 -70 -87
-10 -10 -18 -31 -18 -47 0 -15 -8 -39 -19 -52 -10 -13 -29 -55 -41 -94 -29
-90 -61 -165 -71 -165 -13 0 -30 -77 -23 -104 4 -19 -1 -34 -20 -57 -26 -30
-32 -63 -27 -149 2 -25 -4 -41 -18 -54 -12 -11 -21 -27 -21 -36 0 -41 -22 -79
-49 -85 -35 -7 -54 -56 -45 -115 l7 -42 -59 7 c-103 13 -111 37 -69 197 13 52
21 104 18 116 -3 12 -1 28 4 35 17 21 56 156 50 172 -9 23 -52 -1 -77 -42 -11
-19 -27 -33 -39 -33 -11 0 -26 -6 -33 -13 -7 -8 -38 -21 -68 -29 -232 -66
-244 -68 -305 -38 -22 11 -56 20 -75 20 -72 1 -133 43 -180 125 -19 34 -22 53
-21 124 2 83 3 86 46 147 24 34 46 73 50 86 4 12 18 34 30 48 13 14 40 56 60
95 45 87 69 113 109 117 19 2 32 9 32 18 1 8 2 20 3 26 1 7 21 11 55 10 39 -1
59 4 73 17 11 9 28 17 39 17 26 0 64 27 64 46 0 18 10 17 34 -1z m1396 -353
c1 -27 34 -59 60 -58 19 1 26 -5 28 -23 2 -13 12 -25 22 -28 9 -3 23 -15 30
-28 12 -22 30 -33 110 -68 19 -8 64 -39 99 -67 l65 -53 23 29 c16 19 23 38 20
57 -2 16 1 27 8 27 7 0 26 3 42 6 47 9 63 -15 63 -94 0 -37 -5 -87 -11 -112
-11 -47 -5 -95 11 -85 6 3 10 21 10 39 0 22 8 39 25 54 14 12 25 25 26 29 0 5
3 19 5 33 3 14 5 36 5 50 1 14 6 32 14 40 7 8 17 28 22 44 13 40 93 134 121
142 16 5 33 0 53 -16 17 -12 36 -19 42 -16 7 4 32 18 57 33 88 51 115 63 140
63 14 0 37 7 53 14 15 8 37 13 48 11 25 -5 59 -33 59 -49 1 -18 32 -50 73 -75
20 -12 37 -29 37 -38 0 -8 11 -38 25 -66 16 -31 29 -77 33 -121 6 -63 9 -71
29 -74 16 -2 36 10 67 42 24 25 51 46 59 46 7 0 19 11 25 25 10 22 17 25 64
24 38 -1 63 5 91 21 39 23 51 46 18 35 -27 -8 -36 13 -15 36 11 12 30 19 56
19 37 0 40 -2 63 -52 14 -29 25 -60 25 -69 0 -9 15 -27 33 -39 25 -17 37 -36
49 -79 34 -116 42 -169 30 -209 -17 -59 -32 -141 -32 -174 0 -36 -30 -129 -47
-143 -6 -5 -23 -37 -38 -70 -28 -65 -27 -63 -67 -123 -16 -23 -28 -51 -28 -62
0 -11 -9 -25 -20 -32 -11 -7 -20 -19 -20 -27 0 -8 -11 -28 -24 -45 -12 -17
-26 -53 -30 -79 -6 -39 -12 -50 -33 -58 -16 -6 -23 -14 -19 -24 3 -9 -3 -19
-15 -26 -11 -6 -27 -25 -34 -42 -7 -18 -25 -43 -39 -56 -15 -14 -31 -42 -36
-63 -6 -21 -16 -38 -23 -38 -7 0 -30 18 -51 39 -37 38 -38 40 -27 74 7 20 25
52 42 73 16 20 29 41 29 47 0 15 60 136 70 142 13 8 140 272 140 292 0 10 12
29 26 42 18 17 24 32 21 49 -2 13 3 40 13 60 11 24 22 82 28 162 6 69 18 146
26 170 20 56 20 84 2 99 -8 7 -12 21 -9 31 4 17 0 20 -25 20 -54 0 -142 -39
-161 -71 -9 -16 -23 -29 -31 -28 -31 3 -39 -2 -59 -36 -11 -19 -27 -35 -36
-35 -8 0 -15 -6 -15 -14 0 -8 -16 -33 -35 -56 -19 -23 -35 -46 -35 -52 0 -5
-13 -26 -29 -46 -20 -25 -36 -66 -51 -127 -20 -84 -42 -143 -75 -206 -8 -14
-12 -35 -9 -46 4 -13 -4 -31 -25 -54 -17 -18 -31 -41 -31 -51 0 -9 -4 -20 -10
-23 -5 -3 -10 -21 -10 -38 0 -18 -7 -52 -16 -77 -9 -25 -16 -62 -16 -82 -1
-40 -6 -46 -26 -26 -9 9 -17 7 -34 -9 -32 -29 -115 -37 -128 -12 -12 22 -13
126 -1 133 4 3 11 23 15 44 3 22 13 45 21 52 9 7 14 21 13 31 -2 9 6 28 18 41
23 26 59 142 50 164 -3 8 3 29 14 47 11 17 20 37 20 44 0 7 11 24 25 39 22 23
31 57 26 88 -1 4 7 27 18 50 14 29 22 71 26 136 3 52 12 115 20 140 14 42 19
113 13 170 -1 14 -12 36 -24 49 -22 23 -25 24 -66 12 -70 -21 -81 -27 -127
-67 -105 -92 -151 -151 -151 -193 0 -12 -15 -38 -33 -58 -19 -21 -37 -47 -41
-58 -17 -44 -35 -150 -30 -172 5 -19 0 -31 -25 -53 -34 -32 -40 -55 -14 -64
12 -5 14 -9 5 -18 -7 -7 -12 -22 -12 -35 0 -16 -8 -27 -25 -33 -15 -6 -25 -17
-25 -30 0 -18 -45 -111 -76 -155 -8 -11 -14 -26 -14 -35 -1 -25 -37 -64 -62
-65 -12 -1 -34 -5 -47 -9 -31 -11 -40 1 -46 63 -3 29 -7 56 -9 60 -3 4 4 15
15 24 10 9 19 25 19 36 0 26 27 88 41 93 16 5 48 214 38 256 -4 18 -10 36 -12
39 -9 9 -35 -40 -58 -107 -12 -36 -32 -88 -45 -116 -13 -28 -28 -72 -33 -97
-4 -25 -15 -52 -23 -61 -9 -8 -19 -31 -22 -52 -5 -21 -14 -38 -24 -41 -16 -4
-52 -67 -52 -91 0 -6 -8 -15 -17 -21 -29 -16 -67 34 -68 89 0 35 -3 44 -15 40
-22 -6 -227 -3 -282 5 -27 4 -61 2 -78 -3 -23 -9 -31 -8 -37 3 -5 8 -39 19
-77 25 -38 6 -81 17 -95 24 -14 8 -43 22 -63 32 -47 23 -75 61 -94 127 -27 91
-32 155 -16 211 8 28 17 71 21 96 4 25 13 55 19 67 8 14 10 38 6 63 -6 36 -5
40 15 40 13 0 30 15 48 43 15 23 36 48 46 56 13 9 17 21 13 36 -5 18 -1 24 19
29 37 9 61 50 46 82 -14 32 -14 35 4 28 8 -3 26 4 41 15 15 12 33 21 40 21 7
0 21 14 31 30 10 18 26 30 38 30 11 0 25 8 32 19 6 10 32 26 56 34 25 8 55 25
66 36 23 23 41 20 41 -7z m-3176 -2836 c30 -10 44 -11 57 -3 13 8 24 8 41 0
13 -7 46 -15 75 -18 42 -5 57 -13 75 -36 13 -17 31 -40 42 -52 10 -12 30 -36
45 -54 l26 -32 70 9 c39 5 93 11 120 14 71 8 109 21 166 55 27 17 53 31 57 31
4 1 23 14 42 30 19 17 39 30 45 30 6 0 27 -18 45 -40 18 -22 38 -40 44 -40 6
0 24 -7 40 -15 15 -8 32 -13 36 -10 5 3 11 1 15 -5 3 -5 14 -10 25 -10 11 0
20 -10 24 -25 4 -14 11 -25 16 -25 13 0 55 -44 76 -80 27 -46 22 -49 129 86
67 84 137 134 188 134 30 0 87 -53 87 -81 0 -11 7 -33 15 -49 14 -27 14 -30
-7 -50 -17 -16 -20 -23 -10 -29 27 -16 -15 -156 -50 -167 -11 -3 -25 0 -33 6
-28 23 -99 -10 -157 -74 -35 -37 -35 -46 1 -80 22 -22 30 -40 35 -84 16 -136
5 -404 -17 -446 -11 -20 -14 -43 -10 -72 5 -41 4 -44 -46 -90 -28 -26 -51 -54
-51 -62 0 -8 -9 -30 -21 -48 -18 -30 -25 -34 -65 -34 -41 0 -44 -2 -34 -19 11
-21 3 -135 -11 -163 -12 -23 4 -61 40 -96 34 -32 94 -156 123 -252 62 -210 58
-196 112 -450 30 -144 37 -295 18 -352 -8 -21 -17 -38 -21 -38 -14 0 -31 67
-31 121 0 30 -13 106 -30 169 -16 63 -34 149 -40 190 -11 69 -49 205 -69 240
-5 9 -12 31 -16 50 -4 19 -23 69 -41 113 -23 52 -34 95 -34 125 0 36 -5 50
-19 59 -11 7 -27 28 -36 47 -12 25 -24 36 -43 38 -19 2 -27 9 -27 23 0 16 6
19 29 17 l28 -4 -17 29 c-18 31 -14 46 27 105 10 14 9 20 -7 32 -25 18 -77 29
-99 20 -10 -4 -16 -1 -16 9 0 8 7 17 15 21 24 9 17 26 -10 26 -14 0 -25 -4
-25 -9 0 -9 -108 -42 -138 -43 -112 -1 -264 13 -286 27 -27 18 -25 51 3 40 26
-11 143 -23 182 -20 20 2 49 10 65 17 16 8 37 13 47 10 36 -8 160 91 140 112
-3 3 -5 57 -4 119 2 121 -2 132 -48 135 -41 2 -57 31 -60 103 -2 73 14 160 32
171 20 13 57 9 64 -7 3 -9 -3 -25 -12 -35 -23 -25 -19 -29 23 -23 22 4 37 13
44 29 9 19 16 22 42 17 17 -3 32 -7 34 -9 4 -2 10 -50 16 -115 2 -20 7 -42 10
-48 7 -11 -23 -60 -36 -61 -4 0 -15 11 -24 25 -27 41 -41 31 -49 -34 -4 -33
-4 -70 0 -82 9 -26 13 -169 5 -174 -3 -2 -5 -22 -5 -46 0 -39 3 -44 41 -64 23
-12 64 -25 91 -28 48 -5 50 -5 68 29 10 20 32 42 47 50 15 8 28 22 28 32 0 10
7 27 15 39 9 13 21 76 31 160 13 115 13 160 4 268 -6 72 -12 139 -13 150 -1
13 -20 28 -58 47 -50 23 -89 58 -89 79 0 12 72 50 85 45 27 -10 110 15 140 43
16 16 53 36 81 45 49 16 51 18 62 65 14 62 5 149 -17 160 -31 15 -121 -28
-121 -58 0 -11 -23 -42 -52 -70 -29 -28 -48 -51 -43 -51 4 0 0 -9 -9 -19 -10
-11 -15 -24 -12 -30 8 -12 -2 -18 -40 -26 -57 -13 -69 -11 -69 10 -1 71 -112
204 -183 220 -17 3 -41 -1 -60 -11 -19 -9 -62 -17 -105 -18 -40 -1 -82 -7 -94
-14 -13 -7 -40 -12 -60 -10 -21 1 -65 -4 -97 -12 -50 -12 -63 -20 -85 -52 -14
-20 -34 -37 -43 -38 -20 0 -34 -22 -43 -71 -4 -20 -17 -49 -29 -64 -22 -27
-25 -28 -55 -16 -17 8 -31 17 -31 21 0 4 -20 13 -45 19 -25 6 -48 17 -51 24
-2 6 -36 30 -75 52 -148 84 -173 116 -194 251 -4 27 -12 58 -17 68 -8 15 -7
22 8 33 23 17 58 16 108 -1z m1124 -508 c-3 -29 -1 -65 5 -81 8 -24 6 -32 -11
-50 -12 -11 -24 -18 -28 -15 -14 15 -13 134 2 166 23 49 37 40 32 -20z m-448
-17 c0 -11 4 -21 9 -23 5 -1 12 -17 15 -35 6 -25 3 -36 -13 -50 -12 -9 -21
-26 -21 -36 0 -18 -2 -18 -22 -5 -30 20 -37 55 -21 102 21 61 53 89 53 47z
m-317 -86 c32 -29 34 -35 6 -35 -11 0 -29 -5 -40 -10 -16 -9 -17 -14 -8 -32 8
-16 8 -30 -1 -58 -9 -28 -9 -42 -1 -58 6 -11 11 -63 11 -115 0 -82 -3 -101
-24 -137 -13 -24 -22 -48 -20 -55 3 -6 -6 -22 -20 -36 -16 -17 -24 -35 -24
-60 0 -44 -37 -105 -73 -121 -24 -11 -34 -27 -58 -90 -6 -16 -18 -28 -27 -28
-32 0 -104 -106 -104 -153 0 -13 -3 -27 -7 -31 -4 -3 -8 -16 -10 -27 -2 -11
-12 -30 -23 -42 -23 -23 -35 -60 -26 -75 3 -5 -1 -18 -9 -28 -8 -10 -15 -32
-15 -47 0 -33 -41 -180 -69 -252 -16 -41 -20 -45 -21 -23 0 15 5 39 12 55 19
47 23 68 32 164 5 49 21 130 67 339 10 48 20 63 78 120 77 74 121 136 158 218
29 65 51 94 65 86 5 -3 2 11 -6 31 -21 49 -21 51 13 65 19 7 34 24 41 43 9 28
8 34 -10 49 -22 18 -26 48 -10 77 10 20 20 99 23 204 3 71 12 87 52 87 11 -1
32 -12 48 -25z m-37 -1602 c0 -170 4 -362 9 -428 4 -66 7 -135 7 -152 -2 -52
-3 -87 -2 -105 1 -10 -6 -33 -16 -53 -12 -27 -14 -38 -5 -49 9 -10 8 -15 -1
-19 -7 -2 -16 -4 -20 -3 -15 3 -56 -47 -62 -75 -3 -16 -14 -32 -23 -36 -10 -3
-29 -16 -43 -28 -14 -13 -34 -25 -44 -27 -11 -2 -23 -15 -27 -30 -7 -27 5 -41
13 -16 3 8 9 8 23 1 12 -7 30 -7 52 -1 46 13 59 0 74 -70 6 -31 24 -85 40
-119 16 -35 36 -91 44 -125 7 -35 20 -82 27 -106 11 -39 11 -45 -5 -53 -13 -8
-15 -17 -10 -37 12 -52 68 -147 118 -200 98 -106 117 -131 110 -153 -3 -10 4
-33 16 -52 19 -29 31 -36 83 -46 34 -7 82 -19 108 -27 53 -17 139 -15 145 3 3
7 -7 15 -21 19 -27 7 -30 12 -18 31 5 8 19 9 53 1 34 -8 49 -18 62 -41 17 -29
18 -29 37 -12 13 12 18 25 14 37 -4 14 1 20 25 24 35 7 61 32 44 42 -6 4 -12
16 -14 27 -3 14 -13 20 -43 22 -44 2 -55 13 -48 49 3 19 1 23 -12 18 -12 -5
-16 0 -16 19 0 14 5 29 11 32 18 12 5 27 -35 40 -31 11 -51 11 -94 3 -52 -11
-55 -10 -73 13 -34 45 -53 107 -41 134 16 36 29 31 60 -20 l27 -46 75 1 c101
2 158 -8 162 -29 2 -12 15 -16 48 -16 40 0 45 -2 43 -22 -2 -16 2 -21 12 -17
17 7 19 -9 5 -36 -7 -13 -5 -26 5 -47 8 -15 15 -36 15 -45 0 -9 5 -20 10 -23
13 -8 13 -52 -1 -61 -7 -4 -7 -10 -1 -16 13 -13 72 11 72 29 0 15 15 24 43 27
20 2 22 -1 19 -31 -3 -26 -1 -33 13 -33 17 0 57 18 65 30 9 13 50 22 50 11 0
-6 7 -11 15 -11 8 0 15 4 15 9 0 17 65 32 94 22 17 -7 26 -7 26 -1 0 6 7 10
16 10 24 0 10 46 -27 87 -39 45 -37 51 6 16 59 -49 68 -129 20 -185 -29 -34
-90 -68 -121 -68 -24 0 -56 -20 -93 -57 -29 -30 -35 -33 -43 -19 -5 9 -13 14
-19 11 -5 -4 -9 -1 -9 5 0 8 -9 10 -24 6 -20 -5 -26 -1 -37 27 -7 17 -14 34
-16 36 -1 2 -15 -9 -30 -25 l-28 -29 -3 23 c-3 20 -8 23 -30 17 -49 -12 -95
-38 -100 -57 -2 -10 -18 -22 -36 -27 -35 -9 -46 -6 -46 13 0 10 -22 14 -87 14
-96 1 -157 7 -176 19 -6 4 -37 8 -67 9 -30 1 -95 8 -143 15 l-89 14 4 78 c3
43 0 81 -5 84 -5 3 -35 46 -67 95 -71 109 -115 227 -101 275 10 34 3 78 -22
133 -9 19 -26 70 -39 112 -28 95 -44 107 -112 84 -26 -9 -51 -14 -55 -11 -5 2
-14 52 -20 110 -7 58 -18 105 -23 105 -6 0 -7 7 -4 16 3 8 2 12 -3 9 -5 -3
-12 -1 -15 4 -4 5 -2 12 4 16 19 12 -1 25 -36 25 -31 0 -51 -19 -21 -21 9 0 9
-2 0 -5 -24 -10 -51 14 -46 40 5 23 2 25 -38 28 -36 2 -44 7 -44 23 -1 25 29
96 61 142 13 20 25 48 25 62 2 23 2 24 6 4 2 -13 8 -23 13 -23 5 0 7 -7 4 -15
-4 -9 0 -15 9 -15 8 0 17 -9 20 -19 4 -15 -2 -20 -28 -25 -32 -6 -85 -60 -85
-85 0 -14 57 -14 66 0 9 15 24 -9 24 -38 0 -25 27 -43 63 -43 14 0 28 -7 31
-16 4 -10 14 -14 26 -11 11 3 33 0 48 -5 53 -20 75 -5 117 79 68 140 91 227
88 333 -1 30 -5 177 -7 325 -3 149 -7 287 -9 308 -5 46 21 167 36 167 1 0 2
-138 3 -307z m-506 -201 c0 -10 -4 -10 -16 2 -8 9 -12 21 -8 27 7 13 24 -7 24
-29z m0 -60 c0 -7 -4 -10 -10 -7 -5 3 -10 16 -10 28 0 18 2 19 10 7 5 -8 10
-21 10 -28z m9 -62 c25 -21 82 -243 66 -258 -3 -3 -5 0 -5 7 0 7 -6 11 -14 8
-20 -8 -57 55 -45 74 15 24 10 73 -12 113 -14 27 -18 47 -14 65 5 18 9 21 13
11 3 -8 8 -17 11 -20z m1574 -423 c-3 -21 -14 -48 -24 -60 -10 -12 -32 -38
-48 -58 -17 -20 -31 -42 -31 -48 0 -7 -12 -24 -27 -39 -16 -15 -35 -40 -43
-57 -24 -49 -71 -45 -84 7 -5 24 3 36 74 105 44 43 80 82 80 88 0 6 8 15 18
22 19 11 71 108 73 134 1 8 5 -2 10 -21 4 -19 5 -52 2 -73z m-639 -379 c13
-29 29 -84 35 -123 13 -75 30 -144 41 -160 14 -19 20 -65 10 -65 -5 0 -10 -7
-10 -15 0 -20 -34 -19 -65 1 -32 21 -58 131 -45 188 10 44 6 76 -17 149 -28
90 14 110 51 25z m374 -31 c7 -15 17 -27 21 -27 13 0 22 -37 28 -110 3 -41 12
-74 24 -91 11 -15 23 -47 28 -71 25 -121 35 -150 58 -161 13 -5 23 -13 23 -16
0 -3 42 -7 93 -9 101 -4 149 -21 176 -63 15 -23 15 -23 -18 4 -38 31 -54 31
-59 -2 -3 -21 -4 -22 -29 -6 -18 12 -49 17 -112 17 -47 1 -94 5 -103 10 -19 9
-51 66 -74 130 -7 22 -22 51 -32 66 -13 18 -23 61 -31 127 -7 55 -19 123 -27
152 -21 77 3 113 34 50z m466 -659 c22 -21 37 -40 34 -43 -7 -7 -95 90 -109
119 -6 12 0 8 13 -8 13 -17 41 -47 62 -68z"/>
<path d="M13454 7456 c-23 -6 -52 -20 -64 -31 -21 -19 -22 -19 -35 -1 -12 15
-22 17 -58 12 -54 -8 -164 -96 -203 -161 -14 -24 -34 -47 -44 -50 -21 -7 -90
-125 -90 -155 0 -22 37 -37 53 -21 16 16 37 14 37 -3 0 -25 21 -29 43 -8 12
11 37 23 55 27 26 5 32 10 27 26 -8 23 -2 24 30 3 23 -15 27 -14 71 10 26 14
52 26 60 26 7 0 17 6 21 13 4 7 36 35 71 62 37 30 60 55 57 64 -4 9 1 12 17 8
32 -8 105 61 110 102 2 17 -1 29 -5 28 -5 -1 -13 6 -18 16 -9 16 -72 49 -88
46 -3 -1 -25 -7 -47 -13z m16 -166 c-19 -13 -30 -13 -30 0 0 6 10 10 23 10 18
0 19 -2 7 -10z"/>
<path d="M9558 8457 c-24 -30 -27 -31 -45 -16 -33 30 -80 13 -181 -69 -52 -41
-96 -80 -98 -87 -3 -7 -18 -15 -35 -19 -17 -3 -29 -12 -29 -21 0 -8 -6 -15
-13 -15 -19 0 -79 -47 -94 -73 -25 -44 9 -224 49 -259 11 -10 33 -18 50 -18
16 0 43 -7 59 -16 26 -13 50 -14 175 -5 140 10 146 11 191 43 92 66 183 149
183 168 0 6 9 23 20 37 11 14 20 35 20 47 0 12 4 26 8 32 4 5 14 26 21 47 12
36 11 39 -22 80 -19 23 -40 52 -46 65 -14 27 -143 112 -169 111 -9 0 -29 -15
-44 -32z"/>
<path d="M9250 7832 c0 -11 78 -28 87 -18 10 10 0 15 -45 22 -27 4 -42 3 -42
-4z"/>
<path d="M10845 7974 c-33 -19 -70 -34 -81 -34 -12 0 -27 -7 -34 -15 -7 -8
-19 -15 -28 -15 -41 0 -80 -42 -132 -142 -29 -57 -66 -120 -82 -140 -24 -31
-29 -48 -30 -95 -1 -71 25 -163 55 -192 36 -36 122 -98 144 -105 12 -4 27 -13
33 -21 7 -8 23 -15 36 -15 13 0 24 -4 24 -8 0 -11 61 -32 94 -32 14 0 37 7 51
16 13 8 47 17 76 18 41 2 55 8 70 27 10 13 19 20 19 15 1 -33 70 79 70 114 0
9 4 20 8 26 19 20 93 267 88 289 -3 12 -26 45 -52 71 -25 27 -52 63 -60 79 -8
17 -27 50 -44 75 -16 25 -34 54 -39 65 -14 32 -32 42 -81 47 -38 4 -55 0 -105
-28z"/>
<path d="M11400 7611 c-7 -15 -7 -21 0 -21 12 0 25 28 17 36 -3 3 -10 -4 -17
-15z"/>
<path d="M11107 7093 c-5 -9 -10 -52 -8 -68 2 -8 30 60 31 73 0 5 -19 1 -23
-5z"/>
<path d="M7695 5344 c-15 -15 -19 -30 -15 -49 1 -5 2 -30 1 -54 0 -49 23 -82
69 -96 14 -4 33 -14 43 -23 9 -8 27 -16 40 -18 12 -1 25 -3 30 -3 4 -1 17 -13
29 -27 19 -21 28 -24 58 -19 20 3 44 17 56 32 l22 26 -62 81 c-34 44 -69 93
-79 108 -26 42 -162 72 -192 42z"/>
<path d="M8585 4543 c9 -50 21 -62 40 -37 8 10 15 24 15 31 0 16 -28 43 -47
43 -12 0 -14 -7 -8 -37z"/>
<path d="M7920 4260 c0 -5 5 -10 10 -10 6 0 10 5 10 10 0 6 -4 10 -10 10 -5 0
-10 -4 -10 -10z"/>
<path d="M7800 2125 c0 -18 5 -25 20 -25 24 0 28 35 4 44 -23 9 -24 8 -24 -19z"/>
<path d="M8096 1448 c1 -13 3 -26 3 -30 1 -3 13 -20 27 -37 21 -26 30 -29 57
-24 18 3 34 7 36 9 6 5 -39 57 -71 81 -40 29 -55 29 -52 1z"/>
</g>
</svg>
